0
SECTION
2
HEADER
9
$INSUNITS
70
4
0
ENDSEC
0
SECTION
2
TABLES
0
TABLE
2
LTYPE
0
LTYPE
72
65
70
64
2
CONTINUOUS
3
______
73
0
40
0
0
ENDTAB
0
TABLE
2
LAYER
0
ENDTAB
0
ENDSEC
0
SECTION
2
ENTITIES
0
LINE
8
0
10
164.3430654
20
-150.8458878
11
180.6824885
21
-148.5495316
0
ARC
8
0
10
180.4041423
20
-146.5689954
40
2
50
278
51
278.1315345
0
ARC
8
0
10
178.2469592
20
-131.2198404
40
2
50
43.1019479
51
98
0
LINE
8
0
10
177.968613
20
-129.2393042
11
161.6291899
21
-131.5356604
0
ARC
8
0
10
161.9075361
20
-133.5161966
40
2
50
98
51
188
0
LINE
8
0
10
159.927
20
-133.7945428
11
162.084183
21
-149.1436978
0
ARC
8
0
10
164.0647192
20
-148.8653516
40
2
50
188
51
278
0
LINE
8
0
10
182.9122249
20
-152.7934033
11
199.3896122
21
-151.92986
0
ARC
8
0
10
199.2849403
20
-149.932601
40
2
50
273
51
3
0
LINE
8
0
10
201.2821994
20
-149.827929
11
200.9064292
21
-142.6578063
0
LINE
8
0
10
180.6870345
20
-148.5488873
11
180.8102939
21
-150.9008161
0
ARC
8
0
10
182.807553
20
-150.7961442
40
2
50
183
51
273
0
ARC
8
0
10
181.0804664
20
-117.8413695
40
2
50
153.0000007
51
183
0
LINE
8
0
10
179.0832073
20
-117.9460415
11
179.7072373
21
-129.8532432
0
LINE
8
0
10
199.0264267
20
-106.7852233
11
199.0114116
21
-106.4987183
0
LINE
8
0
10
198.8260375
20
-102.9615689
11
198.6405286
21
-99.421848
0
LINE
8
0
10
195.5422703
20
-97.5566978
11
180.0599153
21
-98.3680937
0
ARC
8
0
10
180.1645872
20
-100.3653527
40
2
50
93
51
183
0
LINE
8
0
10
178.1673281
20
-100.4700247
11
178.9785354
21
-115.9487824
0
ARC
8
0
10
180.9757945
20
-115.8441105
40
2
50
183
51
212.9999973
0
LINE
8
0
10
200.9064292
20
-142.6578063
11
217.3260375
21
-142.6578063
0
ARC
8
0
10
200.8260375
20
-107.6578063
40
2
50
149.9999999
51
154.1324979
0
LINE
8
0
10
219.3260374
20
-93.4078063
11
219.3260375
21
-90.1578063
0
ARC
8
0
10
217.3260375
20
-90.1578063
40
2
50
0
51
90
0
LINE
8
0
10
217.3260375
20
-88.1578063
11
200.8260375
21
-88.1578063
0
ARC
8
0
10
200.8260375
20
-90.1578063
40
2
50
90
51
180
0
LINE
8
0
10
198.8260375
20
-90.1578063
11
198.8260375
21
-93.4803378
0
LINE
8
0
10
198.8260375
20
-99.3964176
11
198.8260375
21
-102.9615689
0
ARC
8
0
10
200.8260375
20
-105.6578063
40
2
50
204.8633795
51
210.0000001
0
LINE
8
0
10
219.3260374
20
-147.9078063
11
230.0293624
21
-147.9078063
0
LINE
8
0
10
217.3260375
20
-142.6578063
11
217.3260374
21
-145.9078063
0
ARC
8
0
10
219.3260374
20
-145.9078063
40
2
50
180
51
270
0
LINE
8
0
10
237.8260374
20
-102.9667072
11
237.8260374
21
-95.4078063
0
ARC
8
0
10
235.8260374
20
-95.4078063
40
2
50
0
51
90
0
LINE
8
0
10
235.8260374
20
-93.4078063
11
219.3260374
21
-93.4078063
0
LINE
8
0
10
251.9174869
20
-139.4642869
11
252.5540454
21
-139.4976475
0
LINE
8
0
10
257.7773969
20
-111.4826229
11
258.1306646
21
-104.7418736
0
ARC
8
0
10
256.1334055
20
-104.6372016
40
2
50
357
51
87
0
LINE
8
0
10
256.2380774
20
-102.6399426
11
239.7606901
21
-101.7763993
0
ARC
8
0
10
239.6560182
20
-103.7736584
40
2
50
87
51
156.2043643
0
LINE
8
0
10
229.1493881
20
-168.5397419
11
245.4888112
21
-170.836098
0
ARC
8
0
10
245.7671574
20
-168.8555619
40
2
50
262
51
287.325094
0
LINE
8
0
10
249.5983464
20
-155.9658292
11
251.9174869
21
-139.4642869
0
LINE
8
0
10
230.0293624
20
-147.9078063
11
227.4471982
21
-166.2808595
0
ARC
8
0
10
229.4277343
20
-166.5592057
40
2
50
172
51
262
0
LINE
8
0
10
247.2749951
20
-171.3242283
11
263.1358131
21
-175.8722447
0
ARC
8
0
10
263.6870878
20
-173.9497213
40
2
50
254
51
344
0
LINE
8
0
10
265.6096112
20
-174.500996
11
272.8295012
21
-149.3222471
0
LINE
8
0
10
252.240323
20
-146.7521614
11
249.5983464
21
-155.9658292
0
ARC
8
0
10
247.8262698
20
-169.4017049
40
2
50
222.9655858
51
254
0
LINE
8
0
10
272.8295012
20
-149.3222471
11
277.0618442
21
-149.5440548
0
ARC
8
0
10
277.1665161
20
-147.5467957
40
2
50
267
51
357
0
LINE
8
0
10
279.1637751
20
-147.6514676
11
280.8908617
21
-114.696693
0
ARC
8
0
10
278.8936026
20
-114.5920211
40
2
50
357
51
87
0
LINE
8
0
10
278.9982745
20
-112.594762
11
257.7773969
21
-111.4826229
0
LINE
8
0
10
252.5540454
20
-139.4976475
11
252.2007777
21
-146.2383968
0
ARC
8
0
10
254.1980368
20
-146.3430687
40
2
50
177
51
191.8029439
0
ARC
8
0
10
198.3260375
20
-96.4383777
40
3
50
276.0173935
51
279.5940682
0
ARC
8
0
10
198.3260375
20
-96.4383777
40
3
50
440.4059318
51
561.8867604
0
LINE
8
0
10
259.6904992
20
-146.6309165
11
277.6658308
21
-147.5729637
0
LINE
8
0
10
277.6658308
20
-147.5729637
11
279.3929174
21
-114.6181891
0
LINE
8
0
10
279.3929174
20
-114.6181891
11
261.4175858
21
-113.6761419
0
LINE
8
0
10
261.4175858
20
-113.6761419
11
259.6904992
21
-146.6309165
0
CIRCLE
8
0
10
198.3260375
20
-96.4383777
40
1
0
CIRCLE
8
0
10
239.3260374
20
-140.6554081
40
1
0
LINE
8
0
10
163.6461303
20
-149.4795856
11
180.9758215
21
-147.0440563
0
LINE
8
0
10
180.9758215
20
-147.0440563
11
178.6655481
21
-130.6056064
0
LINE
8
0
10
178.6655481
20
-130.6056064
11
161.3358569
21
-133.0411357
0
LINE
8
0
10
161.3358569
20
-133.0411357
11
163.6461303
21
-149.4795856
0
LINE
8
0
10
182.337023
20
-151.3715585
11
199.8130399
21
-150.4556792
0
LINE
8
0
10
199.8130399
20
-150.4556792
11
198.944263
21
-133.8784289
0
LINE
8
0
10
198.944263
20
-133.8784289
11
181.4682461
21
-134.7943082
0
LINE
8
0
10
181.4682461
20
-134.7943082
11
182.337023
21
-151.3715585
0
LINE
8
0
10
181.4211437
20
-133.8955416
11
198.8971606
21
-132.9796623
0
LINE
8
0
10
198.8971606
20
-132.9796623
11
198.0283837
21
-116.402412
0
LINE
8
0
10
198.0283837
20
-116.402412
11
180.5523668
21
-117.3182913
0
LINE
8
0
10
180.5523668
20
-117.3182913
11
181.4211437
21
-133.8955416
0
LINE
8
0
10
180.5052645
20
-116.4195248
11
197.9812814
21
-115.5036455
0
LINE
8
0
10
197.9812814
20
-115.5036455
11
197.1125045
21
-98.9263952
0
LINE
8
0
10
197.1125045
20
-98.9263952
11
179.6364876
21
-99.8422745
0
LINE
8
0
10
179.6364876
20
-99.8422745
11
180.5052645
21
-116.4195248
0
LINE
8
0
10
200.3260375
20
-141.2078063
11
217.8260375
21
-141.2078063
0
LINE
8
0
10
217.8260375
20
-141.2078063
11
217.8260375
21
-124.6078063
0
LINE
8
0
10
217.8260375
20
-124.6078063
11
200.3260375
21
-124.6078063
0
LINE
8
0
10
200.3260375
20
-124.6078063
11
200.3260375
21
-141.2078063
0
LINE
8
0
10
200.3260375
20
-123.7078063
11
217.8260375
21
-123.7078063
0
LINE
8
0
10
217.8260375
20
-123.7078063
11
217.8260375
21
-107.1078063
0
LINE
8
0
10
217.8260375
20
-107.1078063
11
200.3260375
21
-107.1078063
0
LINE
8
0
10
200.3260375
20
-107.1078063
11
200.3260375
21
-123.7078063
0
LINE
8
0
10
200.3260375
20
-106.2078063
11
217.8260375
21
-106.2078063
0
LINE
8
0
10
217.8260375
20
-106.2078063
11
217.8260375
21
-89.6078063
0
LINE
8
0
10
217.8260375
20
-89.6078063
11
200.3260375
21
-89.6078063
0
LINE
8
0
10
200.3260375
20
-89.6078063
11
200.3260375
21
-106.2078063
0
LINE
8
0
10
218.8260374
20
-146.4578063
11
236.3260374
21
-146.4578063
0
LINE
8
0
10
236.3260374
20
-146.4578063
11
236.3260374
21
-129.8578063
0
LINE
8
0
10
236.3260374
20
-129.8578063
11
218.8260374
21
-129.8578063
0
LINE
8
0
10
218.8260374
20
-129.8578063
11
218.8260374
21
-146.4578063
0
LINE
8
0
10
218.8260374
20
-128.9578063
11
236.3260374
21
-128.9578063
0
LINE
8
0
10
236.3260374
20
-128.9578063
11
236.3260374
21
-112.3578063
0
LINE
8
0
10
236.3260374
20
-112.3578063
11
218.8260374
21
-112.3578063
0
LINE
8
0
10
218.8260374
20
-112.3578063
11
218.8260374
21
-128.9578063
0
LINE
8
0
10
218.8260374
20
-111.4578063
11
236.3260374
21
-111.4578063
0
LINE
8
0
10
236.3260374
20
-111.4578063
11
236.3260374
21
-94.8578063
0
LINE
8
0
10
236.3260374
20
-94.8578063
11
218.8260374
21
-94.8578063
0
LINE
8
0
10
218.8260374
20
-94.8578063
11
218.8260374
21
-111.4578063
0
LINE
8
0
10
237.4008321
20
-137.2515113
11
254.876849
21
-138.1673906
0
LINE
8
0
10
254.876849
20
-138.1673906
11
255.7456259
21
-121.5901403
0
LINE
8
0
10
255.7456259
20
-121.5901403
11
238.269609
21
-120.674261
0
LINE
8
0
10
238.269609
20
-120.674261
11
237.4008321
21
-137.2515113
0
LINE
8
0
10
238.3167113
20
-119.7754944
11
255.7927282
21
-120.6913737
0
LINE
8
0
10
255.7927282
20
-120.6913737
11
256.6615051
21
-104.1141234
0
LINE
8
0
10
256.6615051
20
-104.1141234
11
239.1854882
21
-103.1982441
0
LINE
8
0
10
239.1854882
20
-103.1982441
11
238.3167113
21
-119.7754944
0
LINE
8
0
10
228.8560551
20
-167.0342666
11
246.1857463
21
-169.4697959
0
LINE
8
0
10
246.1857463
20
-169.4697959
11
248.4960197
21
-153.031346
0
LINE
8
0
10
248.4960197
20
-153.031346
11
231.1663285
21
-150.5958167
0
LINE
8
0
10
231.1663285
20
-150.5958167
11
228.8560551
21
-167.0342666
0
LINE
8
0
10
247.1940384
20
-169.7925802
11
264.0161181
21
-174.6162339
0
LINE
8
0
10
264.0161181
20
-174.6162339
11
268.5916982
21
-158.6592898
0
LINE
8
0
10
268.5916982
20
-158.6592898
11
251.7696185
21
-153.8356361
0
LINE
8
0
10
251.7696185
20
-153.8356361
11
247.1940384
21
-169.7925802
0
ENDSEC
0
EOF